<svg xmlns="http://www.w3.org/2000/svg" viewBox="0 0 512 640" x="0px" y="0px"><title>bolt icon</title><desc>bolt icon for website, application, printing, document, poster design, etc.</desc><metadata><?xpacket begin="&#65279;" id="W5M0MpCehiHzreSzNTczkc9d"?><x:xmpmeta xmlns:x="adobe:ns:meta/" x:xmptk="Adobe XMP Core 5.6-c145 79.162955, 2018/05/10-01:07:16        "/><?xpacket end="w"?></metadata><g><path d="M229.657,197.656a14.514,14.514,0,0,1,7.939-4.086A24.241,24.241,0,0,0,257.569,173.6a14.629,14.629,0,0,1,24.774-7.94l40,40,8,8a14.627,14.627,0,0,1-20.686,20.686l-32-32-11.314,11.314,32,32a14.646,14.646,0,0,1,0,20.682l-.009.009a14.628,14.628,0,0,1-20.681,0l-32-32-11.314,11.314,32,32a14.627,14.627,0,0,1-20.686,20.686l-32-32-11.314,11.314,32,32a14.627,14.627,0,0,1-20.686,20.686l-8-8-40-40A14.629,14.629,0,0,1,173.6,257.57,24.241,24.241,0,0,0,193.569,237.6,14.635,14.635,0,0,1,205.6,225.57,24.241,24.241,0,0,0,225.569,205.6,14.529,14.529,0,0,1,229.657,197.656Zm-57.235,177.5a8,8,0,0,1-1.6-13.255l28-23.76-4.483-4.483-31.9-31.9-76.031,64.5,37.164,18.582a8,8,0,0,1,2.079,12.812L57.669,465.645l162.954-66.389ZM328.97,299.716l34.746-34.745a14.628,14.628,0,0,0-20.686-20.687l-34.746,34.745a14.628,14.628,0,0,0,20.686,20.687ZM380,480,290.563,360.751l19.094-19.094-11.314-11.314-24,24a25.948,25.948,0,0,1-36.686,0l-4.965-4.965A30.628,30.628,0,0,0,254.581,318.6q.707.033,1.419.032A30.6,30.6,0,0,0,286.581,286.6q.707.033,1.419.032l.126,0c-.08.909-.126,1.825-.126,2.749a30.627,30.627,0,0,0,52.284,21.656l20.467-20.466L480,380V480ZM329.53,364.706l64,88,12.94-9.412-64-88Zm14.412-221.664a8,8,0,0,1-2.765,7.058l-28,23.762,20.481,20.481,8,8a30.486,30.486,0,0,1,6.328,9.23l77.6-65.836-37.164-18.582a8,8,0,0,1-2.079-12.812l67.988-67.988L291.377,112.744l48.2,24.1A8,8,0,0,1,343.942,143.042Zm-146.285,43.3-25.75-25.75-11.314,11.314,25.75,25.75Zm-40.25-40.25-54.25-54.25L91.843,103.157l54.25,54.25ZM89.34,77.079,68.9,58.564,58.16,70.421,78.6,88.936ZM485.93,325.892l4.14-15.455-64-17.149-4.14,15.455ZM201.563,490.071l13.3-49.631L199.407,436.3l-13.3,49.631Zm180.367-276.1,4.14,15.455,53.292-14.28-4.14-15.455Zm108.14-12.412-4.14-15.455-26.816,7.185,4.141,15.456ZM310.437,490.07l15.455-4.14L312,434.1l-15.455,4.14ZM154.07,220.406,67.737,197.273,63.6,212.728l86.333,23.133ZM49.609,192.416,26.07,186.108l-4.14,15.455,23.539,6.308ZM325.892,26.07l-15.455-4.14-12.862,48,15.455,4.14ZM72.091,313.561l47.757-12.8-4.141-15.455-47.757,12.8Zm-22.6,6.056-4.14-15.455L21.93,310.437l4.14,15.455ZM220.405,154.07l15.455-4.14-21.435-80L198.97,74.07ZM210.138,53.93l-8.575-32-15.455,4.14,8.575,32Z"/></g><text x="0" y="527" fill="#000000" font-size="5px" font-weight="bold" font-family="'Helvetica Neue', Helvetica, Arial-Unicode, Arial, Sans-serif">Created by monkik</text><text x="0" y="532" fill="#000000" font-size="5px" font-weight="bold" font-family="'Helvetica Neue', Helvetica, Arial-Unicode, Arial, Sans-serif">from the Noun Project</text></svg>